<svg xmlns="http://www.w3.org/2000/svg" viewBox="0 0 290.62 172.28"><defs><style>.cls-1{fill:#03df07;}</style></defs><g id="Layer_2" data-name="Layer 2"><g id="Layer_1-2" data-name="Layer 1"><rect width="289.79" height="172.28" rx="86.14"/><rect class="cls-1" x="118.33" width="172.28" height="172.28" rx="86.14"/><path d="M173.79,76.83v24.68h-6.14l-.81-7.14c-1.42,6-4.54,7.66-9.08,7.66-6.81,0-10.07-5.86-10.07-12.86,0-7.19,3.36-12.86,10.07-12.86,4.54,0,7.52,1.7,8.75,7.66l.76-7.14Zm-7.23,12.34c0-4-2.22-7-5.82-7s-5.82,3.21-5.82,7,2.32,6.9,5.82,6.9S166.56,93.09,166.56,89.17Z"/><path d="M179.52,67h7.23v34.52h-7.23Z"/><path d="M206.9,95.55v6h-5.11c-5.25,0-7.9-2.79-7.9-8.13V82.5H190.3V76.83h3.59V70.06h7.24v1.47a5.07,5.07,0,0,1-5.39,5.3h11.11V82.5h-5.72v9.84c0,2.08,1.08,3.21,3.12,3.21Z"/><path d="M211.06,80.85a3.39,3.39,0,0,1,3.69-3.65,3.65,3.65,0,1,1,0,7.29A3.39,3.39,0,0,1,211.06,80.85Zm0,17.35a3.39,3.39,0,0,1,3.69-3.64,3.64,3.64,0,1,1,0,7.28A3.39,3.39,0,0,1,211.06,98.2Z"/><path d="M185.17,105.9l-6.1,24.69h-8.7l-4-19.15-3.92,19.15h-8.7l-6.1-24.69H155l3.46,17.69L162,105.9h8.93l3.46,17.64,3.45-17.64Z"/><path d="M187,118.25c0-7.52,5.25-12.68,12.91-12.68s12.86,5.3,12.86,12.68-5.25,12.67-12.86,12.67C192.13,130.92,187,125.62,187,118.25Zm18.63,0c0-3.79-2.13-7-5.72-7-3.78,0-5.77,3.27-5.77,7s2.13,6.9,5.77,6.9S205.65,121.84,205.65,118.25Z"/><path d="M233.69,105.9v5.68h-2.88c-4.26,0-6.62,2.32-6.62,7v12H217V105.9h5.87l.71,7.71c1-5.67,3.68-7.71,7.14-7.71Z"/><path d="M254.12,130.59l-9.55-11.78v11.78h-7.24V96.07h7.24v20.19l9.22-10.36h8.13l-10.4,12,10.54,12.72Z"/></g></g></svg>