<svg xmlns="http://www.w3.org/2000/svg" viewBox="0 0 290.62 172.28"><defs><style>.cls-1{fill:#fff;}</style></defs><g id="Layer_2" data-name="Layer 2"><g id="Layer_1-2" data-name="Layer 1"><rect x="0.83" width="289.79" height="172.28" rx="86.14"/><rect class="cls-1" width="172.28" height="172.28" rx="86.14"/><path d="M55.46,76.83v24.68H49.31l-.8-7.14c-1.42,6-4.54,7.66-9.08,7.66-6.81,0-10.07-5.86-10.07-12.86,0-7.19,3.35-12.86,10.07-12.86C44,76.31,47,78,48.18,84l.75-7.14ZM48.22,89.17c0-4-2.22-7-5.81-7s-5.82,3.21-5.82,7,2.32,6.9,5.82,6.9S48.22,93.09,48.22,89.17Z"/><path d="M61.18,67h7.24v34.52H61.18Z"/><path d="M88.56,95.55v6H83.45c-5.25,0-7.89-2.79-7.89-8.13V82.5H72V76.83h3.6V70.06h7.23v1.47a5.07,5.07,0,0,1-5.39,5.3H88.51V82.5H82.79v9.84c0,2.08,1.09,3.21,3.12,3.21Z"/><path d="M92.72,80.85a3.39,3.39,0,0,1,3.69-3.65,3.65,3.65,0,1,1,0,7.29A3.39,3.39,0,0,1,92.72,80.85Zm0,17.35a3.39,3.39,0,0,1,3.69-3.64,3.64,3.64,0,1,1,0,7.28A3.39,3.39,0,0,1,92.72,98.2Z"/><path d="M66.84,105.9l-6.1,24.69H52l-4-19.15-3.93,19.15h-8.7l-6.1-24.69h7.33l3.45,17.69,3.5-17.69h8.94L56,123.54l3.45-17.64Z"/><path d="M68.68,118.25c0-7.52,5.25-12.68,12.91-12.68s12.87,5.3,12.87,12.68-5.25,12.67-12.87,12.67C73.79,130.92,68.68,125.62,68.68,118.25Zm18.64,0c0-3.79-2.13-7-5.73-7-3.78,0-5.77,3.27-5.77,7s2.13,6.9,5.77,6.9S87.32,121.84,87.32,118.25Z"/><path d="M115.36,105.9v5.68h-2.89c-4.25,0-6.62,2.32-6.62,7v12H98.62V105.9h5.86l.71,7.71c1-5.67,3.69-7.71,7.14-7.71Z"/><path d="M135.79,130.59l-9.56-11.78v11.78H119V96.07h7.23v20.19l9.23-10.36h8.13l-10.4,12,10.54,12.72Z"/></g></g></svg>