<svg xmlns="http://www.w3.org/2000/svg" viewBox="0 0 273.47 46.95"><defs><style>.cls-1{fill:#1a1a18;}.cls-2{fill:#03df07;}</style></defs><g id="Layer_2" data-name="Layer 2"><g id="Layer_1-2" data-name="Layer 1"><path d="M34.53,13V45.67H26.4l-1.06-9.45c-1.88,7.89-6,10.14-12,10.14-9,0-13.33-7.76-13.33-17,0-9.51,4.44-17,13.33-17,6,0,9.94,2.25,11.57,10.13l1-9.45ZM25,29.34c0-5.25-2.94-9.2-7.69-9.2s-7.7,4.26-7.7,9.2,3.07,9.14,7.7,9.14S25,34.53,25,29.34Z"/><path d="M42.11,0h9.57V45.67H42.11Z"/><path d="M78.33,37.79v7.88H71.57c-6.94,0-10.44-3.69-10.44-10.76V20.52H56.37V13h4.76V4.07H70.7V6a6.71,6.71,0,0,1-7.13,7h14.7v7.51H70.7v13c0,2.76,1.44,4.26,4.13,4.26Z"/><path d="M83.84,18.33a4.48,4.48,0,0,1,4.88-4.82,4.54,4.54,0,0,1,4.94,4.82,4.54,4.54,0,0,1-4.94,4.82A4.48,4.48,0,0,1,83.84,18.33Zm0,23a4.48,4.48,0,0,1,4.88-4.82,4.54,4.54,0,0,1,4.94,4.82,4.54,4.54,0,0,1-4.94,4.82A4.48,4.48,0,0,1,83.84,41.29Z"/><path d="M147.84,13l-8.07,32.66H128.26L123,20.33l-5.19,25.34H106.3L98.23,13h9.69l4.57,23.4L117.12,13H129l4.56,23.34L138.08,13Z"/><path d="M235.93,13v7.51h-3.81c-5.64,0-8.76,3.07-8.76,9.26V45.67h-9.57V13h7.75l.94,10.2c1.38-7.51,4.88-10.2,9.45-10.2Z"/><path d="M263,45.67,250.32,30.09V45.67h-9.57V0h9.57V26.71L262.52,13h10.76L259.52,28.84l14,16.83Z"/><rect class="cls-1" x="150.46" y="12.22" width="58.43" height="34.74" rx="17.37"/><rect class="cls-2" x="174.3" y="12.22" width="34.74" height="34.74" rx="17.37"/></g></g></svg>